<svg viewBox="0 0 42.3 30" xmlns="http://www.w3.org/2000/svg">
  <defs></defs>
  <path d="M 0.475 12.265 L 20.749 22.865 C 20.874 22.931 21.014 22.966 21.156 22.966 C 21.298 22.966 21.438 22.931 21.563 22.865 L 41.837 12.265 C 41.98 12.19 42.1 12.078 42.183 11.94 C 42.267 11.802 42.311 11.644 42.311 11.482 C 42.311 11.321 42.267 11.162 42.183 11.024 C 42.1 10.886 41.98 10.774 41.837 10.7 L 21.563 0.099 C 21.437 0.034 21.297 0 21.155 0 C 21.013 0 20.873 0.034 20.747 0.099 L 0.473 10.7 C 0.33 10.774 0.211 10.887 0.128 11.025 C 0.044 11.163 0 11.321 0 11.483 C 0.001 11.644 0.045 11.802 0.129 11.94 C 0.212 12.078 0.332 12.19 0.475 12.265 Z" fill="#009ef7" class="group-hover:fill-typo-secondary transition ease-in-out"></path>
  <path d="M 41.837 17.735 L 38.482 15.981 L 22.378 24.4 C 22.001 24.597 21.583 24.7 21.159 24.7 C 20.734 24.701 20.316 24.599 19.939 24.404 L 3.829 15.98 L 0.475 17.734 C 0.332 17.808 0.212 17.921 0.128 18.059 C 0.044 18.197 0 18.355 0 18.517 C 0 18.678 0.044 18.837 0.128 18.975 C 0.212 19.113 0.332 19.225 0.475 19.3 L 20.748 29.899 C 20.874 29.965 21.014 30 21.156 30 C 21.297 30 21.437 29.965 21.563 29.899 L 41.837 19.3 C 41.98 19.225 42.1 19.113 42.183 18.975 C 42.267 18.837 42.311 18.678 42.311 18.517 C 42.311 18.355 42.267 18.197 42.183 18.059 C 42.1 17.921 41.98 17.809 41.837 17.734 L 41.837 17.735 Z" fill="#59c0fa" class="group-hover:fill-typo-secondary transition ease-in-out"></path>
</svg>